<svg width="50" height="50" viewBox="0 0 50 50" fill="none" xmlns="http://www.w3.org/2000/svg">
    <!--logo-->
    <g id="logo">
        <path d="M185.082 22.204C183.588 22.204 182.244 21.8773 181.05 21.224C179.855 20.552 178.912 19.6093 178.222 18.396C177.55 17.1827 177.214 15.7827 177.214 14.196C177.214 12.6093 177.559 11.2093 178.25 9.99599C178.959 8.78265 179.92 7.84932 181.134 7.19599C182.347 6.52399 183.7 6.18799 185.194 6.18799C186.687 6.18799 188.04 6.52399 189.254 7.19599C190.467 7.84932 191.419 8.78265 192.11 9.99599C192.819 11.2093 193.174 12.6093 193.174 14.196C193.174 15.7827 192.81 17.1827 192.082 18.396C191.372 19.6093 190.402 20.552 189.17 21.224C187.956 21.8773 186.594 22.204 185.082 22.204ZM185.082 18.788C185.791 18.788 186.454 18.62 187.07 18.284C187.704 17.9293 188.208 17.4067 188.582 16.716C188.955 16.0253 189.142 15.1853 189.142 14.196C189.142 12.7213 188.75 11.592 187.966 10.808C187.2 10.0053 186.258 9.60399 185.138 9.60399C184.018 9.60399 183.075 10.0053 182.31 10.808C181.563 11.592 181.19 12.7213 181.19 14.196C181.19 15.6707 181.554 16.8093 182.282 17.612C183.028 18.396 183.962 18.788 185.082 18.788Z"/>
        <path d="M170.793 8.84794C171.297 8.02661 171.951 7.38261 172.753 6.91594C173.575 6.44928 174.508 6.21594 175.553 6.21594V10.3319H174.517C173.285 10.3319 172.352 10.6213 171.717 11.1999C171.101 11.7786 170.793 12.7866 170.793 14.2239V21.9519H166.873V6.43994H170.793V8.84794Z"/>
        <path d="M164.012 13.86C164.012 14.42 163.975 14.924 163.9 15.372H152.56C152.653 16.492 153.045 17.3693 153.736 18.004C154.427 18.6387 155.276 18.956 156.284 18.956C157.74 18.956 158.776 18.3307 159.392 17.08H163.62C163.172 18.5733 162.313 19.8053 161.044 20.776C159.775 21.728 158.216 22.204 156.368 22.204C154.875 22.204 153.531 21.8773 152.336 21.224C151.16 20.552 150.236 19.6093 149.564 18.396C148.911 17.1827 148.584 15.7827 148.584 14.196C148.584 12.5907 148.911 11.1813 149.564 9.96799C150.217 8.75465 151.132 7.82132 152.308 7.16799C153.484 6.51465 154.837 6.18799 156.368 6.18799C157.843 6.18799 159.159 6.50532 160.316 7.13999C161.492 7.77466 162.397 8.67999 163.032 9.85599C163.685 11.0133 164.012 12.348 164.012 13.86ZM159.952 12.74C159.933 11.732 159.569 10.9293 158.86 10.332C158.151 9.71599 157.283 9.40799 156.256 9.40799C155.285 9.40799 154.464 9.70666 153.792 10.304C153.139 10.8827 152.737 11.6947 152.588 12.74H159.952Z"/>
        <path d="M139.676 6.21594C141.524 6.21594 143.018 6.80394 144.156 7.97994C145.295 9.13728 145.864 10.7613 145.864 12.8519V21.9519H141.944V13.3839C141.944 12.1519 141.636 11.2093 141.02 10.5559C140.404 9.88394 139.564 9.54794 138.5 9.54794C137.418 9.54794 136.559 9.88394 135.924 10.5559C135.308 11.2093 135 12.1519 135 13.3839V21.9519H131.08V6.43994H135V8.37194C135.523 7.69994 136.186 7.17728 136.988 6.80394C137.81 6.41194 138.706 6.21594 139.676 6.21594Z"/>
        <path d="M125.275 4.592C124.585 4.592 124.006 4.37734 123.539 3.948C123.091 3.5 122.867 2.94933 122.867 2.296C122.867 1.64267 123.091 1.10133 123.539 0.672C124.006 0.224 124.585 0 125.275 0C125.966 0 126.535 0.224 126.983 0.672C127.45 1.10133 127.683 1.64267 127.683 2.296C127.683 2.94933 127.45 3.5 126.983 3.948C126.535 4.37734 125.966 4.592 125.275 4.592ZM127.207 6.44V21.952H123.287V6.44H127.207Z"/>
        <path d="M110.049 2.40796C112.102 2.40796 113.904 2.80929 115.453 3.61196C117.021 4.41462 118.225 5.56263 119.065 7.05596C119.924 8.53063 120.353 10.248 120.353 12.208C120.353 14.168 119.924 15.8853 119.065 17.36C118.225 18.816 117.021 19.9453 115.453 20.748C113.904 21.5506 112.102 21.952 110.049 21.952H103.217V2.40796H110.049ZM109.909 18.62C111.962 18.62 113.549 18.06 114.669 16.94C115.789 15.82 116.349 14.2426 116.349 12.208C116.349 10.1733 115.789 8.58663 114.669 7.44796C113.549 6.29063 111.962 5.71196 109.909 5.71196H107.137V18.62H109.909Z"/>
        <path d="M94.432 6.43994L84.828 29.2879H80.656L84.016 21.5599L77.8 6.43994H82.196L86.2 17.2759L90.26 6.43994H94.432Z"/>
        <path d="M59.6074 14.14C59.6074 12.572 59.9154 11.1813 60.5314 9.96799C61.1661 8.75465 62.0154 7.82132 63.0794 7.16799C64.1621 6.51465 65.3661 6.18799 66.6914 6.18799C67.8488 6.18799 68.8568 6.42132 69.7154 6.88799C70.5928 7.35466 71.2928 7.94265 71.8154 8.65199V6.43999H75.7634V21.952H71.8154V19.684C71.3114 20.412 70.6114 21.0187 69.7154 21.504C68.8381 21.9707 67.8208 22.204 66.6634 22.204C65.3568 22.204 64.1621 21.868 63.0794 21.196C62.0154 20.524 61.1661 19.5813 60.5314 18.368C59.9154 17.136 59.6074 15.7267 59.6074 14.14ZM71.8154 14.196C71.8154 13.244 71.6288 12.432 71.2554 11.76C70.8821 11.0693 70.3781 10.5467 69.7434 10.192C69.1088 9.81866 68.4274 9.63199 67.6994 9.63199C66.9714 9.63199 66.2994 9.80932 65.6834 10.164C65.0674 10.5187 64.5634 11.0413 64.1714 11.732C63.7981 12.404 63.6114 13.2067 63.6114 14.14C63.6114 15.0733 63.7981 15.8947 64.1714 16.604C64.5634 17.2947 65.0674 17.8267 65.6834 18.2C66.3181 18.5733 66.9901 18.76 67.6994 18.76C68.4274 18.76 69.1088 18.5827 69.7434 18.228C70.3781 17.8547 70.8821 17.332 71.2554 16.66C71.6288 15.9693 71.8154 15.148 71.8154 14.196Z"/>
        <path d="M54.8104 4.592C54.1011 4.592 53.5131 4.37734 53.0464 3.948C52.5984 3.5 52.3744 2.94933 52.3744 2.296C52.3744 1.64267 52.5984 1.10133 53.0464 0.672C53.5131 0.224 54.1011 0 54.8104 0C55.5011 0 56.0704 0.224 56.5184 0.672C56.9664 1.10133 57.1904 1.64267 57.1904 2.296C57.1904 2.94933 56.9664 3.5 56.5184 3.948C56.0704 4.37734 55.5011 4.592 54.8104 4.592ZM56.7424 24.5C56.7424 26.2173 56.3131 27.4493 55.4544 28.196C54.6144 28.9613 53.4011 29.344 51.8144 29.344H50.0784V26.012H51.1984C51.7958 26.012 52.2158 25.8907 52.4584 25.648C52.7011 25.424 52.8224 25.0507 52.8224 24.528V6.44H56.7424V24.5Z"/>
        <path d="M50.7093 6.43994L41.1053 29.2879H36.9333L40.2933 21.5599L34.0773 6.43994H38.4733L42.4773 17.2759L46.5373 6.43994H50.7093Z"/>
        <path d="M15.8848 14.14C15.8848 12.572 16.1928 11.1813 16.8088 9.96799C17.4434 8.75465 18.2928 7.82132 19.3568 7.16799C20.4394 6.51465 21.6434 6.18799 22.9688 6.18799C24.1261 6.18799 25.1341 6.42132 25.9928 6.88799C26.8701 7.35466 27.5701 7.94265 28.0928 8.65199V6.43999H32.0408V21.952H28.0928V19.684C27.5888 20.412 26.8888 21.0187 25.9928 21.504C25.1154 21.9707 24.0981 22.204 22.9408 22.204C21.6341 22.204 20.4394 21.868 19.3568 21.196C18.2928 20.524 17.4434 19.5813 16.8088 18.368C16.1928 17.136 15.8848 15.7267 15.8848 14.14ZM28.0928 14.196C28.0928 13.244 27.9061 12.432 27.5328 11.76C27.1594 11.0693 26.6554 10.5467 26.0208 10.192C25.3861 9.81866 24.7048 9.63199 23.9768 9.63199C23.2488 9.63199 22.5768 9.80932 21.9608 10.164C21.3448 10.5187 20.8408 11.0413 20.4488 11.732C20.0754 12.404 19.8888 13.2067 19.8888 14.14C19.8888 15.0733 20.0754 15.8947 20.4488 16.604C20.8408 17.2947 21.3448 17.8267 21.9608 18.2C22.5954 18.5733 23.2674 18.76 23.9768 18.76C24.7048 18.76 25.3861 18.5827 26.0208 18.228C26.6554 17.8547 27.1594 17.332 27.5328 16.66C27.9061 15.9693 28.0928 15.148 28.0928 14.196Z"/>
        <path d="M12.32 2.40796V16.128C12.32 18.032 11.7693 19.516 10.668 20.58C9.56667 21.6253 8.092 22.148 6.244 22.148C4.37733 22.148 2.86533 21.6066 1.708 20.524C0.569333 19.4413 0 17.9293 0 15.988H3.92C3.93867 16.828 4.13467 17.4813 4.508 17.948C4.9 18.4146 5.46 18.648 6.188 18.648C6.89733 18.648 7.43867 18.424 7.812 17.976C8.18533 17.528 8.372 16.912 8.372 16.128V2.40796H12.32Z"/>
    </g>

    <!--button-->
    <g id="eyeBtn">
        <path d="M3 0.616699C1.69167 0.616699 0.625 1.68337 0.625 3.00003C0.625 4.30837 1.69167 5.37503 3 5.37503C4.30833 5.37503 5.38333 4.30837 5.38333 3.00003C5.38333 1.6917 4.30833 0.616699 3 0.616699Z"/>
    </g>

    <g id="manBtn">
        <path d="M10 9.99996C12.3012 9.99996 14.1667 8.13448 14.1667 5.83329C14.1667 3.53211 12.3012 1.66663 10 1.66663C7.69882 1.66663 5.83334 3.53211 5.83334 5.83329C5.83334 8.13448 7.69882 9.99996 10 9.99996Z"/>
        <path d="M9.99999 12.0834C5.82499 12.0834 2.42499 14.8834 2.42499 18.3334C2.42499 18.5667 2.60832 18.75 2.84165 18.75H17.1583C17.3917 18.75 17.575 18.5667 17.575 18.3334C17.575 14.8834 14.175 12.0834 9.99999 12.0834Z"/>
    </g>


    <!--servises-->
    <g id="designing">
        <path d="M43.0967 51.5833H33.7633C31.2072 51.5833 29.4513 50.885 28.3315 49.7652C27.2117 48.6454 26.5133 46.8894 26.5133 44.3333V11.6667C26.5133 9.11057 27.2117 7.35465 28.3315 6.23483C29.4513 5.11502 31.2072 4.41667 33.7633 4.41667H43.0967C45.6528 4.41667 47.4087 5.11502 48.5285 6.23483C49.6483 7.35465 50.3467 9.11057 50.3467 11.6667V44.3333C50.3467 46.8865 49.6441 48.643 48.5208 49.7641C47.397 50.8858 45.6396 51.5833 43.0967 51.5833ZM33.7633 4.91667C31.7506 4.91667 29.9565 5.33722 28.6952 6.59851C27.4339 7.85981 27.0133 9.65394 27.0133 11.6667V44.3333C27.0133 46.3461 27.4339 48.1402 28.6952 49.4015C29.9565 50.6628 31.7506 51.0833 33.7633 51.0833H43.0967C45.1094 51.0833 46.9035 50.6628 48.1648 49.4015C49.4261 48.1402 49.8467 46.3461 49.8467 44.3333V11.6667C49.8467 9.65394 49.4261 7.85981 48.1648 6.59851C46.9035 5.33722 45.1094 4.91667 43.0967 4.91667H33.7633Z"
              stroke-width="3"/>
        <path d="M38.43 14.25H26.7633C26.7071 14.25 26.6445 14.2273 26.5902 14.1731C26.536 14.1189 26.5133 14.0563 26.5133 14C26.5133 13.9437 26.536 13.8811 26.5902 13.8269C26.6445 13.7727 26.7071 13.75 26.7633 13.75H38.43C38.4863 13.75 38.5489 13.7727 38.6031 13.8269C38.6573 13.8811 38.68 13.9437 38.68 14C38.68 14.0563 38.6573 14.1189 38.6031 14.1731C38.5489 14.2273 38.4863 14.25 38.43 14.25Z"
              stroke-width="3"/>
        <path d="M36.0967 42.25H26.7633C26.7071 42.25 26.6445 42.2273 26.5902 42.1731C26.536 42.1189 26.5133 42.0563 26.5133 42C26.5133 41.9437 26.536 41.8811 26.5902 41.8269C26.6445 41.7727 26.7071 41.75 26.7633 41.75H36.0967C36.1529 41.75 36.2155 41.7727 36.2698 41.8269C36.324 41.8811 36.3467 41.9437 36.3467 42C36.3467 42.0563 36.324 42.1189 36.2698 42.1731C36.2155 42.2273 36.1529 42.25 36.0967 42.25Z"
              stroke-width="3"/>
        <path d="M26.755 32.8001L26.7475 32.8H26.74C26.6179 32.8 26.5098 32.6924 26.5129 32.5624L26.5133 32.5445V32.5267C26.5133 32.4245 26.6088 32.3 26.7633 32.3H26.7633H26.7633H26.7633H26.7633H26.7633H26.7633H26.7633H26.7633H26.7633H26.7633H26.7633H26.7633H26.7633H26.7633H26.7633H26.7633H26.7633H26.7633H26.7633H26.7633H26.7633H26.7633H26.7633H26.7633H26.7634H26.7634H26.7634H26.7634H26.7634H26.7634H26.7634H26.7634H26.7634H26.7634H26.7634H26.7634H26.7634H26.7634H26.7634H26.7634H26.7634H26.7634H26.7634H26.7634H26.7634H26.7634H26.7634H26.7634H26.7634H26.7634H26.7634H26.7634H26.7634H26.7634H26.7634H26.7634H26.7634H26.7634H26.7634H26.7635H26.7635H26.7635H26.7635H26.7635H26.7635H26.7635H26.7635H26.7635H26.7635H26.7635H26.7635H26.7635H26.7635H26.7635H26.7635H26.7635H26.7635H26.7636H26.7636H26.7636H26.7636H26.7636H26.7636H26.7636H26.7636H26.7636H26.7636H26.7636H26.7636H26.7636H26.7636H26.7637H26.7637H26.7637H26.7637H26.7637H26.7637H26.7637H26.7637H26.7637H26.7637H26.7637H26.7637H26.7638H26.7638H26.7638H26.7638H26.7638H26.7638H26.7638H26.7638H26.7638H26.7638H26.7639H26.7639H26.7639H26.7639H26.7639H26.7639H26.7639H26.7639H26.764H26.764H26.764H26.764H26.764H26.764H26.764H26.764H26.7641H26.7641H26.7641H26.7641H26.7641H26.7641H26.7641H26.7642H26.7642H26.7642H26.7642H26.7642H26.7642H26.7643H26.7643H26.7643H26.7643H26.7643H26.7643H26.7643H26.7644H26.7644H26.7644H26.7644H26.7644H26.7645H26.7645H26.7645H26.7645H26.7645H26.7645H26.7646H26.7646H26.7646H26.7646H26.7646H26.7647H26.7647H26.7647H26.7647H26.7648H26.7648H26.7648H26.7648H26.7648H26.7649H26.7649H26.7649H26.7649H26.765H26.765H26.765H26.765H26.765H26.7651H26.7651H26.7651H26.7651H26.7652H26.7652H26.7652H26.7652H26.7653H26.7653H26.7653H26.7654H26.7654H26.7654H26.7654H26.7655H26.7655H26.7655H26.7655H26.7656H26.7656H26.7656H26.7657H26.7657H26.7657H26.7658H26.7658H26.7658H26.7658H26.7659H26.7659H26.7659H26.766H26.766H26.766H26.7661H26.7661H26.7661H26.7662H26.7662H26.7662H26.7663H26.7663H26.7663H26.7664H26.7664H26.7664H26.7665H26.7665H26.7666H26.7666H26.7666H26.7667H26.7667H26.7667H26.7668H26.7668H26.7669H26.7669H26.7669H26.767H26.767H26.7671H26.7671H26.7671H26.7672H26.7672H26.7673H26.7673H26.7673H26.7674H26.7674H26.7675H26.7675H26.7676H26.7676H26.7676H26.7677H26.7677H26.7678H26.7678H26.7679H26.7679H26.768H26.768H26.7681H26.7681H26.7682H26.7682H26.7683H26.7683H26.7683H26.7684H26.7684H26.7685H26.7685H26.7686H26.7686H26.7687H26.7688H26.7688H26.7689H26.7689H26.769H26.769H26.7691H26.7691H26.7692H26.7692H26.7693H26.7693H26.7694H26.7695H26.7695H26.7696H26.7696H26.7697H26.7697H26.7698H26.7699H26.7699H26.77H26.77H26.7701H26.7702H26.7702H26.7703H26.7703H26.7704H26.7705H26.7705H26.7706H26.7706H26.7707H26.7708H26.7708H26.7709H26.771H26.771H26.7711H26.7712H26.7712H26.7713H26.7714H26.7714H26.7715H26.7716H26.7716H26.7717H26.7718H26.7718H26.7719H26.772H26.7721H26.7721H26.7722H26.7723H26.7723H26.7724H26.7725H26.7726H26.7726H26.7727H26.7728H26.7729H26.7729H26.773H26.7731H26.7732H26.7732H26.7733H26.7734H26.7735H26.7736H26.7736H26.7737H26.7738H26.7739H26.774H26.774H26.7741H26.7742H26.7743H26.7744H26.7744H26.7745H26.7746H26.7747H26.7748H26.7749H26.775H26.775H26.7751H26.7752H26.7753H26.7754H26.7755H26.7756H26.7757H26.7757H26.7758H26.7759H26.776H26.7761H26.7762H26.7763H26.7764H26.7765H26.7766H26.7767H26.7768H26.7769H26.7769H26.777H26.7771H26.7772H26.7773H26.7774H26.7775H26.7776H26.7777H26.7778H26.7779H26.778H26.7781H26.7782H26.7783H26.7784H26.7785H26.7786H26.7787H26.7788H26.7789H26.7791H26.7792H26.7793H26.7794H26.7795H26.7796H26.7797H26.7798H26.7799H26.78H26.7801H26.7802H26.7803H26.7805H26.7806L38.4383 32.4166L38.4458 32.4167H38.4533C38.5754 32.4167 38.6835 32.5243 38.6804 32.6543L40.18 32.69L38.6804 32.6534C38.6765 32.8155 38.5542 32.9145 38.4339 32.9166L26.755 32.8001Z"
              stroke-width="3"/>
        <path d="M33.7633 23.5833H26.7633C26.7071 23.5833 26.6445 23.5606 26.5902 23.5064C26.536 23.4522 26.5133 23.3896 26.5133 23.3333C26.5133 23.2771 26.536 23.2145 26.5902 23.1602C26.6445 23.106 26.7071 23.0833 26.7633 23.0833H33.7633C33.8196 23.0833 33.8822 23.106 33.9364 23.1602C33.9907 23.2145 34.0133 23.2771 34.0133 23.3333C34.0133 23.3896 33.9907 23.4522 33.9364 23.5064C33.8822 23.5606 33.8196 23.5833 33.7633 23.5833Z"
              stroke-width="3"/>
        <path d="M8.5884 48.6463L8.58789 48.6455L6.67623 45.4749C6.67593 45.4744 6.67564 45.4739 6.67534 45.4734C6.1132 44.5356 5.65332 42.8896 5.65332 41.8133V11.55C5.65332 7.61843 8.85508 4.41667 12.7867 4.41667C16.7182 4.41667 19.92 7.61843 19.92 11.55V41.79C19.92 42.8665 19.4599 44.5132 18.8975 45.4509C18.8974 45.4511 18.8972 45.4513 18.8971 45.4516L16.9854 48.6222L16.9776 48.6351L16.9701 48.6482C15.8367 50.6168 14.268 51.5133 12.81 51.5133C11.3503 51.5133 9.77309 50.6141 8.5884 48.6463ZM7.10955 45.1914L7.10951 45.1914L7.11542 45.2012L9.0249 48.3681C9.02557 48.3692 9.02625 48.3704 9.02692 48.3715C9.85207 49.7541 11.1572 50.99 12.81 50.99C14.4735 50.99 15.7767 49.7145 16.5884 48.3791L16.5912 48.3745L18.5046 45.2012L18.5046 45.2012L18.5104 45.1914C18.794 44.7128 19.0176 44.0903 19.1684 43.5395C19.3191 42.9889 19.4433 42.3416 19.4433 41.79V11.55C19.4433 7.89824 16.4617 4.91667 12.81 4.91667C9.15823 4.91667 6.17665 7.89824 6.17665 11.55V41.79C6.17665 42.3416 6.30083 42.9889 6.45157 43.5395C6.60239 44.0903 6.82594 44.7128 7.10955 45.1914Z"
              stroke-width="3"/>
        <path d="M19.6933 16.5833H5.90332C5.84704 16.5833 5.78445 16.5606 5.73023 16.5064C5.67601 16.4522 5.65332 16.3896 5.65332 16.3333C5.65332 16.2771 5.67601 16.2145 5.73023 16.1602C5.78445 16.106 5.84704 16.0833 5.90332 16.0833H19.6933C19.7496 16.0833 19.8122 16.106 19.8664 16.1602C19.9206 16.2145 19.9433 16.2771 19.9433 16.3333C19.9433 16.3896 19.9206 16.4522 19.8664 16.5064C19.8122 16.5606 19.7496 16.5833 19.6933 16.5833Z"
              stroke-width="3"/>
    </g>

    <g id="development">
        <path d="M21.375 30.875C19.8075 31.6587 18.5012 32.8225 17.5275 34.2713C16.9812 35.1025 16.9812 36.1475 17.5275 36.9787C18.5012 38.4275 19.8075 39.5912 21.375 40.375"
              stroke-width="3" stroke-linecap="round" stroke-linejoin="round"/>
        <path d="M36.1238 30.875C37.6913 31.6587 38.9975 32.8225 39.9712 34.2713C40.5175 35.1025 40.5175 36.1475 39.9712 36.9787C38.9975 38.4275 37.6913 39.5912 36.1238 40.375"
              stroke-width="3" stroke-linecap="round" stroke-linejoin="round"/>
        <path d="M4.75 30.875V35.625C4.75 47.5 9.5 52.25 21.375 52.25H35.625C47.5 52.25 52.25 47.5 52.25 35.625V21.375C52.25 9.5 47.5 4.75 35.625 4.75H21.375C9.5 4.75 4.75 9.5 4.75 21.375"
              stroke-width="3" stroke-linecap="round" stroke-linejoin="round"/>
        <path d="M5.29625 19.0238L50.9438 19" stroke-width="3" stroke-linecap="round"
              stroke-linejoin="round"/>
    </g>


    <g id="mobile">
        <path d="M31.0833 55.7581V63.5081C31.0833 64.5599 30.2186 65.4247 29.1667 65.4247C28.1148 65.4247 27.25 64.5599 27.25 63.5081V55.7581H31.0833Z"
              stroke-width="2"/>
        <path d="M42.75 55.7581V63.5081C42.75 64.5599 41.8852 65.4247 40.8333 65.4247C39.7814 65.4247 38.9167 64.5599 38.9167 63.5081V55.7581H42.75Z"
              stroke-width="2"/>
        <path d="M48.5833 32.0833V46.6667C48.5833 49.3227 46.406 51.5 43.75 51.5H26.25C23.5939 51.5 21.4167 49.3227 21.4167 46.6667V32.0833C21.4167 29.4273 23.5939 27.25 26.25 27.25H43.75C46.406 27.25 48.5833 29.4273 48.5833 32.0833Z"
              stroke-width="2"/>
        <path d="M13.5833 32.0833V43.75C13.5833 44.8019 12.7185 45.6667 11.6667 45.6667C10.6148 45.6667 9.75 44.8019 9.75 43.75V32.0833C9.75 31.0315 10.6148 30.1667 11.6667 30.1667C12.7185 30.1667 13.5833 31.0315 13.5833 32.0833Z"
              stroke-width="2"/>
        <path d="M60.25 32.0833V43.75C60.25 44.8019 59.3852 45.6667 58.3333 45.6667C57.2814 45.6667 56.4167 44.8019 56.4167 43.75V32.0833C56.4167 31.0315 57.2814 30.1667 58.3333 30.1667C59.3852 30.1667 60.25 31.0315 60.25 32.0833Z"
              stroke-width="2"/>
        <path d="M45.6667 17.5C45.6667 19.5144 44.0144 21.1667 42.0001 21.1667H27.9999C25.9856 21.1667 24.3333 19.5144 24.3333 17.5C24.3333 11.6064 29.1065 6.83333 35 6.83333C40.8936 6.83333 45.6667 11.6064 45.6667 17.5Z"
              stroke-width="2"/>
    </g>

    <g id="version">
        <path d="M20.15 35.65V24.8" stroke="#F5F5F5" stroke-width="3" stroke-linecap="round" stroke-linejoin="round"/>
        <path d="M20.5375 46.5C23.3197 46.5 25.5751 44.2446 25.5751 41.4625C25.5751 38.6803 23.3197 36.425 20.5375 36.425C17.7554 36.425 15.5 38.6803 15.5 41.4625C15.5 44.2446 17.7554 46.5 20.5375 46.5Z"
              stroke="#F5F5F5" stroke-width="3" stroke-linecap="round" stroke-linejoin="round"/>
        <path d="M20.15 24.8C22.7181 24.8 24.7999 22.7181 24.7999 20.15C24.7999 17.5818 22.7181 15.5 20.15 15.5C17.5818 15.5 15.5 17.5818 15.5 20.15C15.5 22.7181 17.5818 24.8 20.15 24.8Z"
              stroke="#F5F5F5" stroke-width="3" stroke-linecap="round" stroke-linejoin="round"/>
        <path d="M41.85 24.8C44.4182 24.8 46.5 22.7181 46.5 20.15C46.5 17.5818 44.4182 15.5 41.85 15.5C39.2819 15.5 37.2001 17.5818 37.2001 20.15C37.2001 22.7181 39.2819 24.8 41.85 24.8Z"
              stroke="#F5F5F5" stroke-width="3" stroke-linecap="round" stroke-linejoin="round"/>
        <path d="M20.3567 35.6499C21.0542 32.9374 23.5342 30.9225 26.4533 30.9483L31.775 30.9741C35.8308 30.9999 39.2925 28.3907 40.5584 24.7482"
              stroke="#F5F5F5" stroke-width="3" stroke-linecap="round" stroke-linejoin="round"/>
        <path d="M23.25 5.16661H38.75C51.6667 5.16661 56.8333 10.3333 56.8333 23.2499V38.7499C56.8333 51.6666 51.6667 56.8333 38.75 56.8333H23.25C10.3333 56.8333 5.16666 51.6666 5.16666 38.7499V23.2499C5.16666 10.3333 10.3333 5.16661 23.25 5.16661Z"
              stroke="#F5F5F5" stroke-width="3" stroke-linecap="round" stroke-linejoin="round"/>
    </g>

    <g id="npm">
        <path d="M23.895 15.7725V35.9775L16.875 33.9525" stroke-width="3" stroke-miterlimit="10"
              stroke-linecap="round" stroke-linejoin="round"/>
        <path d="M37.125 15.75L30.0374 16.7625V27.9L37.125 26.8875V33.975L29.0251 36" stroke-width="3"
              stroke-miterlimit="10" stroke-linecap="round" stroke-linejoin="round"/>
        <path d="M7.47008 11.0475L7.02005 6.9975C6.86255 5.67 7.92003 4.5 9.24753 4.5H44.7301C46.0801 4.5 47.115 5.67 46.9575 6.9975L42.9076 43.4925C42.8176 44.3925 42.165 45.1575 41.2875 45.405L27.6076 49.32C27.2026 49.4325 26.775 49.4325 26.37 49.32L12.6901 45.405C11.8126 45.1575 11.1825 44.3925 11.07 43.4925L8.59508 21.1725"
              stroke-width="3" stroke-miterlimit="10" stroke-linecap="round" stroke-linejoin="round"/>
    </g>

    <g id="scraping">

        <path d="M36 32.02C37.1 32.02 38 32.92 38 34.02V36C38 40.4 35 44 30 44H18C13 44 10 40.4 10 36V34.02C10 32.92 10.9 32.02 12 32.02H36Z"/>
        <path d="M38 12V27C38 28.1 37.1 29 36 29H12C10.9 29 10 28.1 10 27V12C10 7.60003 13 4.00003 18 4.00003H30C35 4.00003 38 7.60003 38 12Z"/>
        <path d="M6 41.5C5.18 41.5 4.5 40.82 4.5 40V7.99997C4.5 7.17997 5.18 6.49997 6 6.49997C6.82 6.49997 7.5 7.17997 7.5 7.99997V40C7.5 40.82 6.82 41.5 6 41.5Z"/>
        <path d="M42 41.5C41.18 41.5 40.5 40.82 40.5 40V7.99997C40.5 7.17997 41.18 6.49997 42 6.49997C42.82 6.49997 43.5 7.17997 43.5 7.99997V40C43.5 40.82 42.82 41.5 42 41.5Z"/>
    </g>

    <!--social-->

    <g id="fb">
        <path d="M29.3334 21.5866C29.3334 26.44 26.44 29.3333 21.5867 29.3333H20C19.2667 29.3333 18.6667 28.7333 18.6667 28V20.3066C18.6667 19.9466 18.96 19.64 19.32 19.64L21.6667 19.6C21.8534 19.5866 22.0134 19.4533 22.0534 19.2666L22.52 16.72C22.56 16.48 22.3734 16.2533 22.12 16.2533L19.28 16.2933C18.9067 16.2933 18.6134 16 18.6 15.64L18.5467 12.3733C18.5467 12.16 18.72 11.9733 18.9467 11.9733L22.1467 11.92C22.3733 11.92 22.5467 11.7466 22.5467 11.52L22.4933 8.31995C22.4933 8.09328 22.32 7.91996 22.0934 7.91996L18.4933 7.97331C16.28 8.01331 14.52 9.82662 14.56 12.04L14.6267 15.7066C14.64 16.08 14.3467 16.3733 13.9734 16.3866L12.3734 16.4133C12.1467 16.4133 11.9734 16.5866 11.9734 16.8133L12.0134 19.3466C12.0134 19.5733 12.1867 19.7466 12.4134 19.7466L14.0134 19.72C14.3867 19.72 14.68 20.0133 14.6933 20.3733L14.8133 27.9733C14.8267 28.72 14.2267 29.3333 13.48 29.3333H10.4134C5.56002 29.3333 2.66669 26.44 2.66669 21.5733V10.4133C2.66669 5.55996 5.56002 2.66663 10.4134 2.66663H21.5867C26.44 2.66663 29.3334 5.55996 29.3334 10.4133V21.5866Z"/>
    </g>

    <g id="instagram">
        <path d="M21.5867 2.66663H10.4133C5.55999 2.66663 2.66666 5.55996 2.66666 10.4133V21.5733C2.66666 26.44 5.55999 29.3333 10.4133 29.3333H21.5733C26.4267 29.3333 29.32 26.44 29.32 21.5866V10.4133C29.3333 5.55996 26.44 2.66663 21.5867 2.66663ZM16 21.1733C13.1467 21.1733 10.8267 18.8533 10.8267 16C10.8267 13.1466 13.1467 10.8266 16 10.8266C18.8533 10.8266 21.1733 13.1466 21.1733 16C21.1733 18.8533 18.8533 21.1733 16 21.1733ZM23.8933 9.17329C23.8267 9.33329 23.7333 9.47996 23.6133 9.61329C23.48 9.73329 23.3333 9.82663 23.1733 9.89329C23.0133 9.95996 22.84 9.99996 22.6667 9.99996C22.3067 9.99996 21.9733 9.86663 21.72 9.61329C21.6 9.47996 21.5067 9.33329 21.44 9.17329C21.3733 9.01329 21.3333 8.83996 21.3333 8.66663C21.3333 8.49329 21.3733 8.31996 21.44 8.15996C21.5067 7.98663 21.6 7.85329 21.72 7.71996C22.0267 7.41329 22.4933 7.26663 22.92 7.35996C23.0133 7.37329 23.0933 7.39996 23.1733 7.43996C23.2533 7.46663 23.3333 7.50663 23.4133 7.55996C23.48 7.59996 23.5467 7.66663 23.6133 7.71996C23.7333 7.85329 23.8267 7.98663 23.8933 8.15996C23.96 8.31996 24 8.49329 24 8.66663C24 8.83996 23.96 9.01329 23.8933 9.17329Z"/>
    </g>

    <g id="dribble">
        <path fill-rule="evenodd" clip-rule="evenodd"
              d="M21.1733 27.8934C21.2133 28.1067 21.0933 28.3334 20.8933 28.4134C19.3866 29.0134 17.7333 29.3334 16.0267 29.3334C13.08 29.3334 10.36 28.3867 8.15996 26.76C7.9733 26.6267 7.92001 26.36 8.04001 26.16C8.77334 24.8534 11.6399 20.6534 17.9733 18.3067C18.2133 18.2134 18.4799 18.3333 18.5599 18.5733C20.1466 22.8267 20.8933 26.4267 21.1733 27.8934Z"/>
        <path fill-rule="evenodd" clip-rule="evenodd"
              d="M29.0934 18.52C28.4801 21.8 26.64 24.6533 24.0667 26.6C23.7867 26.8133 23.3867 26.6533 23.32 26.32C23.04 24.88 22.36 21.7733 21.0533 18.08C20.96 17.8 21.1467 17.4933 21.4401 17.4533C24.7601 17.0533 27.6667 17.6933 28.7601 17.9866C28.9867 18.0666 29.1334 18.2933 29.0934 18.52Z"/>
        <path fill-rule="evenodd" clip-rule="evenodd"
              d="M28.7867 15.76C27.4268 15.52 23.96 15.0133 20.4134 15.4C20.2 15.4267 20.0134 15.3067 19.9201 15.1067C19.8667 14.9867 19.8267 14.8667 19.7734 14.7467C19.5601 14.2534 19.3334 13.7467 19.1067 13.2534C18.9867 13.0134 19.1067 12.72 19.3467 12.6134C23.0801 11 25.16 8.92002 25.9734 7.98668C26.1734 7.76002 26.5201 7.77338 26.7068 8.01338C28.2401 10.0534 29.1867 12.5467 29.3334 15.24C29.3467 15.5734 29.0801 15.8134 28.7867 15.76Z"/>
        <path fill-rule="evenodd" clip-rule="evenodd"
              d="M24.5867 6.38672C23.8934 7.22672 21.9467 9.22669 18.2534 10.6934C18.04 10.7867 17.7867 10.6934 17.6667 10.48C15.96 7.38669 14.1467 4.7867 13.3067 3.61336C13.1067 3.33336 13.2667 2.93338 13.6 2.88005C14.3734 2.74671 15.1867 2.68005 16.0134 2.68005C19.24 2.68005 22.2134 3.8267 24.5201 5.7467C24.7201 5.89337 24.7467 6.18672 24.5867 6.38672Z"/>
        <path fill-rule="evenodd" clip-rule="evenodd"
              d="M14.6934 11.7867C9.64003 13.0534 5.1733 13.2267 3.54663 13.2534C3.23997 13.2534 3.01335 12.96 3.09335 12.6667C4.05335 8.93338 6.61332 5.81339 9.98666 4.09339C10.1867 3.98673 10.44 4.05337 10.5733 4.24004C11.2667 5.20004 13.1467 7.90673 14.9867 11.0934C15.1333 11.3601 15 11.7067 14.6934 11.7867Z"/>
        <path fill-rule="evenodd" clip-rule="evenodd"
              d="M17.2267 15.4667C17.3467 15.72 17.2 16.0266 16.9334 16.12C11.0267 18.0266 7.49335 22.76 6.42669 24.3867C6.25335 24.6533 5.88002 24.6667 5.68002 24.4267C3.81336 22.1333 2.68002 19.5066 2.68002 16.32V16.08C2.68002 15.8133 2.89334 15.6 3.16 15.6133C4.84 15.68 10.32 15.4533 16.0134 13.8133C16.2267 13.7466 16.4667 13.8533 16.56 14.0533C16.7867 14.52 17.0133 14.9867 17.2267 15.4667Z"/>
    </g>

    <g id="mail">
        <path d="M22.6667 4.66663H9.33332C5.33332 4.66663 2.66666 6.66663 2.66666 11.3333V20.6666C2.66666 25.3333 5.33332 27.3333 9.33332 27.3333H22.6667C26.6667 27.3333 29.3333 25.3333 29.3333 20.6666V11.3333C29.3333 6.66663 26.6667 4.66663 22.6667 4.66663ZM23.2933 12.7866L19.12 16.12C18.24 16.8266 17.12 17.1733 16 17.1733C14.88 17.1733 13.7467 16.8266 12.88 16.12L8.70666 12.7866C8.27999 12.44 8.21332 11.8 8.54666 11.3733C8.89332 10.9466 9.51999 10.8666 9.94666 11.2133L14.12 14.5466C15.1333 15.36 16.8533 15.36 17.8667 14.5466L22.04 11.2133C22.4667 10.8666 23.1067 10.9333 23.44 11.3733C23.7867 11.8 23.72 12.44 23.2933 12.7866Z"/>
    </g>


</svg>